<?xml version="1.0" encoding="UTF-8"?>
<svg version="1.1" xmlns="http://www.w3.org/2000/svg" width="137" height="136">
<path d="M0 0 C14.83354584 15.91703962 18.75766794 33.48874308 18.5390625 54.6484375 C18.53345194 56.2665314 18.52918877 57.88463046 18.52619934 59.50273132 C18.51486525 63.71624369 18.48549991 67.92943488 18.4520874 72.14282227 C18.42113662 76.46040505 18.40764113 80.77804085 18.39257812 85.09570312 C18.36061647 93.53399988 18.30956278 101.97203787 18.24609375 110.41015625 C14.46095492 111.28770958 10.93941305 111.54669106 7.05737305 111.57128906 C5.82806564 111.58089661 4.59875824 111.59050415 3.3321991 111.60040283 C1.99490548 111.605256 0.65760967 111.60953355 -0.6796875 111.61328125 C-1.36121572 111.61610863 -2.04274395 111.618936 -2.74492455 111.62184906 C-6.36193601 111.63682113 -9.9789079 111.6460592 -13.59594727 111.65039062 C-17.28585438 111.65582806 -20.97538361 111.67975987 -24.66517353 111.70836258 C-27.5404302 111.72724411 -30.41560118 111.73220818 -33.29091454 111.7337265 C-35.29785353 111.73812915 -37.30474619 111.75665988 -39.31159973 111.7756958 C-61.03770829 111.72411102 -79.24566657 105.93748787 -95.00390625 90.66015625 C-107.35592406 78.19549425 -111.64702269 62.29311941 -111.94140625 45.09765625 C-111.70304919 26.50580592 -104.7641517 11.97331796 -91.96484375 -1.46875 C-65.88925621 -26.26829815 -25.51837089 -24.42891663 0 0 Z M-73.44140625 14.59765625 C-82.25007523 25.31090231 -87.01306354 35.43186 -86.75390625 49.41015625 C-85.07043965 61.54013437 -79.81645743 72.13978611 -70.75390625 80.41015625 C-60.24932298 88.16999357 -50.17393092 90.78169483 -37.29296875 88.90625 C-26.64880929 86.88593774 -18.58991931 83.12646146 -10.0546875 76.546875 C-8.36252765 73.76726107 -8.61814257 71.68097437 -9.16479492 68.53491211 C-10.14822946 64.98794535 -11.87496102 61.99127616 -13.75390625 58.84765625 C-16.58303602 54.08462833 -18.8451087 50.11334952 -18.75390625 44.41015625 C-17.43069652 40.87355727 -15.65643753 37.63918631 -13.81640625 34.34765625 C-9.26449765 26.84823874 -9.26449765 26.84823874 -8.75390625 18.41015625 C-13.68315538 10.52335764 -23.22901881 6.2517854 -31.75390625 3.41015625 C-47.79453286 2.0681847 -60.7062827 4.23185801 -73.44140625 14.59765625 Z " fill="#41A554" transform="translate(113.75390625,21.58984375)"/>
</svg>
